HIERARCHY
ROOT Hips
{
	OFFSET 0.000000 0.000000 0.000000
	CHANNELS 6 Xposition Yposition Zposition Zrotation Yrotation Xrotation 
	JOINT LHipJoint
	{
		OFFSET 0.000000 0.000000 0.000000
		CHANNELS 3 Zrotation Yrotation Xrotation
		JOINT LeftUpLeg
		{
			OFFSET 1.363060 -1.794630 0.839290
			CHANNELS 3 Zrotation Yrotation Xrotation
			JOINT LeftLeg
			{
				OFFSET 2.448110 -6.726130 0.000000
				CHANNELS 3 Zrotation Yrotation Xrotation
				JOINT LeftFoot
				{
					OFFSET 2.562200 -7.039590 0.000000
					CHANNELS 3 Zrotation Yrotation Xrotation
					JOINT LeftToeBase
					{
						OFFSET 0.157640 -0.433110 2.322550
						CHANNELS 3 Zrotation Yrotation Xrotation
						End Site
						{
							OFFSET 0.000000 0.000000 0.000000
						}
					}
				}
			}
		}
	}
	JOINT RHipJoint
	{
		OFFSET 0.000000 0.000000 0.000000
		CHANNELS 3 Zrotation Yrotation Xrotation
		JOINT RightUpLeg
		{
			OFFSET -1.305520 -1.794630 0.839290
			CHANNELS 3 Zrotation Yrotation Xrotation
			JOINT RightLeg
			{
				OFFSET -2.542530 -6.985550 0.000000
				CHANNELS 3 Zrotation Yrotation Xrotation
				JOINT RightFoot
				{
					OFFSET -2.568260 -7.056230 0.000000
					CHANNELS 3 Zrotation Yrotation Xrotation
					JOINT RightToeBase
					{
						OFFSET -0.164730 -0.452590 2.363150
						CHANNELS 3 Zrotation Yrotation Xrotation
						End Site
						{
							OFFSET 0.000000 0.000000 0.000000
						}
					}
				}
			}
		}
	}
	JOINT LowerBack
	{
		OFFSET 0.000000 0.000000 0.000000
		CHANNELS 3 Zrotation Yrotation Xrotation
		JOINT Spine
		{
			OFFSET 0.028270 2.035590 -0.193380
			CHANNELS 3 Zrotation Yrotation Xrotation
			JOINT Spine1
			{
				OFFSET 0.056720 2.048850 -0.042750
				CHANNELS 3 Zrotation Yrotation Xrotation
				JOINT Neck
				{
					OFFSET 0.000000 0.000000 0.000000
					CHANNELS 3 Zrotation Yrotation Xrotation
					JOINT Neck1
					{
						OFFSET -0.054170 1.746240 0.172020
						CHANNELS 3 Zrotation Yrotation Xrotation
						JOINT Head
						{
							OFFSET 0.104070 1.761360 -0.123970
							CHANNELS 3 Zrotation Yrotation Xrotation
							End Site
							{
								OFFSET 0.000000 0.000000 0.000000
							}
						}
					}
				}
				JOINT LeftShoulder
				{
					OFFSET 0.000000 0.000000 0.000000
					CHANNELS 3 Zrotation Yrotation Xrotation
					JOINT LeftArm
					{
						OFFSET 3.362410 1.200890 -0.311210
						CHANNELS 3 Zrotation Yrotation Xrotation
						JOINT LeftForeArm
						{
							OFFSET 4.983000 -0.000000 -0.000000
							CHANNELS 3 Zrotation Yrotation Xrotation
							JOINT LeftHand
							{
								OFFSET 3.483560 -0.000000 -0.000000
								CHANNELS 3 Zrotation Yrotation Xrotation
								JOINT LeftFingerBase
								{
									OFFSET 0.000000 0.000000 0.000000
									CHANNELS 3 Zrotation Yrotation Xrotation
									JOINT LeftHandIndex1
									{
										OFFSET 0.715260 -0.000000 -0.000000
										CHANNELS 3 Zrotation Yrotation Xrotation
										End Site
										{
											OFFSET 0.000000 0.000000 0.000000
										}
									}
								}
								JOINT LThumb
								{
									OFFSET 0.000000 0.000000 0.000000
									CHANNELS 3 Zrotation Yrotation Xrotation
									End Site
									{
										OFFSET 0.000000 0.000000 0.000000
									}
								}
							}
						}
					}
				}
				JOINT RightShoulder
				{
					OFFSET 0.000000 0.000000 0.000000
					CHANNELS 3 Zrotation Yrotation Xrotation
					JOINT RightArm
					{
						OFFSET -3.136600 1.374050 -0.404650
						CHANNELS 3 Zrotation Yrotation Xrotation
						JOINT RightForeArm
						{
							OFFSET -5.241900 -0.000000 -0.000000
							CHANNELS 3 Zrotation Yrotation Xrotation
							JOINT RightHand
							{
								OFFSET -3.444170 -0.000000 -0.000000
								CHANNELS 3 Zrotation Yrotation Xrotation
								JOINT RightFingerBase
								{
									OFFSET 0.000000 0.000000 0.000000
									CHANNELS 3 Zrotation Yrotation Xrotation
									JOINT RightHandIndex1
									{
										OFFSET -0.622530 -0.000000 -0.000000
										CHANNELS 3 Zrotation Yrotation Xrotation
										End Site
										{
											OFFSET 0.000000 0.000000 0.000000
										}
									}
								}
								JOINT RThumb
								{
									OFFSET 0.000000 0.000000 0.000000
									CHANNELS 3 Zrotation Yrotation Xrotation
									End Site
									{
										OFFSET 0.000000 0.000000 0.000000
									}
								}
							}
						}
					}
				}
			}
		}
	}
}
MOTION
Frames: 9
Frame Time: 0.033333
-1.682233 17.134333 23.789270 -1.104159 -12.378760 13.013345 -8.051467 8.385266 8.805904 -11.057463 -15.440558 -13.512443 22.764232 -20.910045 -34.615282 -2.377377 8.757696 73.915013 0.000000 0.000000 0.000000 9.208211 -13.728764 -2.941296 18.020064 20.073726 -17.416751 -13.199333 -12.102650 70.614735 11.713656 -5.542624 -15.808904 0.000000 0.000000 0.000000 -3.057643 3.365293 4.453017 -1.493532 2.457940 1.516230 6.340958 2.265975 -6.441831 5.340284 0.918598 -7.103686 3.320386 0.889670 -9.424968 0.000000 0.000000 0.000000 -2.762563 8.642617 18.061967 -81.124944 -4.430413 -21.132789 -145.632701 -75.495369 177.869191 15.025869 -11.097678 -1.118987 15.400014 -10.863974 0.000000 0.000000 0.000000 0.000000 0.000000 0.000000 0.000000 4.352479 -13.509836 5.254997 52.014266 7.149456 22.211900 24.102107 73.143756 0.218658 -0.057618 6.484395 0.108959 -0.060478 6.486905 0.000000 0.000000 0.000000 0.000000 0.000000 0.000000 0.000000 
-1.702700 17.155523 23.980843 -0.494448 -11.723312 12.462036 -6.216708 8.107266 7.642264 -14.518936 -15.056300 -11.046308 21.720429 -20.679478 -32.895777 -2.157619 7.702727 69.658744 0.000000 0.000000 0.000000 8.462940 -12.459764 -3.288738 17.412415 18.387528 -15.782660 -12.248249 -13.430463 69.349590 11.648738 -6.094820 -14.933830 0.000000 0.000000 0.000000 -3.582101 3.174479 5.294095 -1.541142 2.217010 0.947514 6.079749 2.005192 -5.797321 5.499573 0.959551 -7.072220 3.590196 0.926038 -9.438121 0.000000 0.000000 0.000000 -2.135468 8.183908 18.157003 -81.569847 -4.255332 -20.042391 -145.767937 -76.531015 177.812548 15.739726 -11.867251 -1.151823 16.144180 -11.611388 0.000000 0.000000 0.000000 0.000000 0.000000 0.000000 0.000000 3.199974 -13.610442 5.061636 53.863729 7.729993 21.350173 26.549618 71.902582 0.191913 0.035915 6.019320 0.095663 0.033360 6.021534 0.000000 0.000000 0.000000 0.000000 0.000000 0.000000 0.000000 
-1.721410 17.179312 24.170512 0.073681 -11.052445 11.913810 -4.642787 7.847730 6.516562 -17.530808 -14.511588 -8.830881 20.496093 -20.346971 -30.992521 -1.840187 6.759998 65.381608 0.000000 0.000000 0.000000 7.856965 -11.163053 -3.532418 16.583938 16.642546 -14.191759 -11.128271 -14.752065 67.888451 11.457634 -6.462246 -14.128126 0.000000 0.000000 0.000000 -4.028735 2.973245 6.058852 -1.544272 1.965066 0.539980 5.771163 1.752785 -5.319485 5.672425 0.988506 -7.036604 3.791396 0.948346 -9.403241 0.000000 0.000000 0.000000 -1.634844 7.794497 18.223007 -81.928792 -3.964451 -18.789448 -145.961096 -77.711212 177.762676 16.451929 -12.692999 -1.181917 16.890153 -12.412031 0.000000 0.000000 0.000000 0.000000 0.000000 0.000000 0.000000 2.115594 -13.771221 4.860936 55.566896 8.299570 20.441664 29.091926 70.537447 0.165807 0.110828 5.512159 0.082679 0.108603 5.514074 0.000000 0.000000 0.000000 0.000000 0.000000 0.000000 0.000000 
-1.737151 17.205180 24.357553 0.596535 -10.395031 11.406480 -3.353642 7.627422 5.461065 -20.054435 -13.876289 -6.937830 19.120238 -19.903252 -28.965145 -1.471899 5.952547 61.202663 0.000000 0.000000 0.000000 7.413096 -9.860700 -3.659525 15.530512 14.891718 -12.692348 -9.852167 -16.027447 66.259980 11.155859 -6.645939 -13.396428 0.000000 0.000000 0.000000 -4.404581 2.735687 6.727514 -1.488777 1.685504 0.168625 5.398102 1.496835 -4.890826 5.829456 0.909084 -6.947998 3.612674 0.858023 -8.506635 0.000000 0.000000 0.000000 -1.263208 7.495037 18.261491 -82.203098 -3.569404 -17.425824 -146.193494 -79.045252 177.717518 17.166285 -13.572656 -1.210513 17.642519 -13.263009 0.000000 0.000000 0.000000 0.000000 0.000000 0.000000 0.000000 1.109308 -13.901325 4.676099 57.140106 8.881944 19.456851 31.648873 69.027318 0.139778 0.151820 4.956369 0.069725 0.149909 4.957971 0.000000 0.000000 0.000000 0.000000 0.000000 0.000000 0.000000 
-1.749919 17.232609 24.541285 1.074738 -9.772075 10.975497 -2.359444 7.453961 4.509601 -22.082158 -13.228131 -5.414588 17.656554 -19.352933 -26.867521 -1.102648 5.269060 57.192725 0.000000 0.000000 0.000000 7.143619 -8.588466 -3.651651 14.253872 13.189077 -11.338464 -8.422580 -17.225977 64.493780 10.760762 -6.649092 -12.757105 0.000000 0.000000 0.000000 -4.714688 2.466152 7.268110 -1.384997 1.382960 -0.182439 4.962363 1.241305 -4.512621 5.964087 0.725726 -6.798908 3.072796 0.671535 -6.767741 0.000000 0.000000 0.000000 -1.021288 7.287706 18.274262 -82.390665 -3.067519 -15.947976 -146.480064 -80.545195 177.678635 17.875085 -14.507285 -1.236990 18.394063 -14.165059 0.000000 0.000000 0.000000 0.000000 0.000000 0.000000 0.000000 0.193484 -14.002003 4.504091 58.575474 9.481290 18.402582 34.188388 67.359120 0.114440 0.153633 4.348100 0.057108 0.152046 4.349389 0.000000 0.000000 0.000000 0.000000 0.000000 0.000000 0.000000 
-1.759248 17.261225 24.721182 1.646197 -9.250948 10.409094 -1.299415 7.186175 3.211792 -24.376685 -12.175264 -3.438791 16.266668 -18.656995 -24.902720 -0.675681 4.956408 53.987350 0.000000 0.000000 0.000000 6.960364 -7.275559 -3.397071 12.579936 11.385147 -9.961961 -6.689144 -18.400042 62.402298 10.092539 -6.222383 -12.397865 0.000000 0.000000 0.000000 -5.095004 2.234986 7.853507 -1.291498 1.110118 -0.369448 4.473288 1.025627 -4.339390 6.158332 0.611857 -6.627518 2.748984 0.559118 -5.615017 0.000000 0.000000 0.000000 -0.858697 7.146925 18.270218 -82.491097 -2.466106 -14.252496 -146.934170 -82.235138 177.648380 18.574782 -15.526876 -1.260608 19.143398 -15.146957 0.000000 0.000000 0.000000 0.000000 0.000000 0.000000 0.000000 -0.736332 -14.245352 4.268744 59.968875 10.157748 17.018429 37.254066 64.979643 0.090743 0.154049 3.728990 0.045299 0.152765 3.730002 0.000000 0.000000 0.000000 0.000000 0.000000 0.000000 0.000000 
-1.764510 17.290624 24.897243 2.302931 -8.885271 9.730735 -0.199867 6.814131 1.570613 -26.831245 -10.699837 -1.060590 14.999943 -17.830592 -23.146416 -0.212697 5.058473 51.744289 0.000000 0.000000 0.000000 6.898006 -5.960564 -2.849761 10.499089 9.552697 -8.608203 -4.639103 -19.487227 59.996511 9.183798 -5.395287 -12.317933 0.000000 0.000000 0.000000 -5.551252 2.053250 8.455881 -1.214467 0.879252 -0.398339 3.935264 0.863050 -4.386528 6.426891 0.564772 -6.417782 2.630539 0.508045 -5.033744 0.000000 0.000000 0.000000 -0.782021 7.088180 18.254213 -82.498282 -1.754217 -12.350618 -147.584892 -84.124609 177.629830 19.255523 -16.640595 -1.280133 19.881803 -16.217301 0.000000 0.000000 0.000000 0.000000 0.000000 0.000000 0.000000 -1.681324 -14.643655 3.949557 61.284688 10.952086 15.178812 40.805704 61.611366 0.067736 0.131641 3.072553 0.033825 0.130636 3.073309 0.000000 0.000000 0.000000 0.000000 0.000000 0.000000 0.000000 
-1.766171 17.320473 25.068980 2.782231 -8.553740 9.243042 0.470568 6.592478 0.399246 -28.379013 -9.553490 0.477453 13.686937 -16.983621 -21.388183 0.155100 5.099949 49.449960 0.000000 0.000000 0.000000 6.926022 -4.887109 -2.432579 8.908346 8.085857 -7.387218 -3.063048 -20.240976 57.978040 8.610707 -5.110432 -11.654256 0.000000 0.000000 0.000000 -5.816008 1.851206 8.851892 -1.146557 0.636314 -0.280971 3.238203 0.703358 -4.703361 6.878326 0.574156 -6.179359 2.732057 0.512932 -4.984645 0.000000 0.000000 0.000000 -0.698361 7.243604 18.295550 -82.378566 -1.029554 -11.009481 -147.905812 -85.474789 177.890572 18.797935 -17.023028 -1.141316 19.387248 -16.624160 0.000000 0.000000 0.000000 0.000000 0.000000 0.000000 0.000000 -2.969847 -15.395694 3.348239 62.769822 12.354163 11.796661 45.682009 54.704093 0.038972 0.077621 2.373523 0.019461 0.076716 2.374035 0.000000 0.000000 0.000000 0.000000 0.000000 0.000000 0.000000 
-1.764518 17.350538 25.236597 3.084079 -8.219709 8.942861 0.748533 6.524360 -0.269287 -29.139772 -8.807538 1.224849 12.360726 -16.147414 -19.622788 0.419281 4.990231 46.946844 0.000000 0.000000 0.000000 6.988289 -4.027438 -2.207294 7.849848 6.941928 -6.292720 -2.012448 -20.736033 56.398206 8.349957 -5.347319 -10.435357 0.000000 0.000000 0.000000 -5.877930 1.610799 9.062899 -1.101471 0.362435 -0.005277 2.397372 0.529205 -5.513501 7.529835 0.642756 -5.778101 3.063848 0.576271 -5.483703 0.000000 0.000000 0.000000 -0.595989 7.644835 18.512275 -82.116458 -0.190547 -10.313051 -147.775211 -86.115854 178.470579 16.812010 -16.344792 -0.822756 17.250705 -16.051150 0.000000 0.000000 0.000000 0.000000 0.000000 0.000000 0.000000 -4.614133 -16.709604 2.028043 64.148114 14.770943 6.940387 50.578918 42.128334 0.011383 -0.111902 1.413094 0.005684 -0.112429 1.413347 0.000000 0.000000 0.000000 0.000000 0.000000 0.000000 0.000000 
